<svg width="343" height="564" viewBox="0 0 343 564" fill="none" xmlns="http://www.w3.org/2000/svg">
<rect width="343" height="564" rx="16" fill="#0342D0" fill-opacity="0.8"/>
<path fill-rule="evenodd" clip-rule="evenodd" d="M186.07 271.823V265.557L186.063 265.543C186.063 265.192 185.711 264.974 185.43 265.15L168.18 275.865C167.92 276.027 167.593 276.027 167.333 275.865L162.311 272.743C162.304 272.739 162.296 272.734 162.288 272.729C162.28 272.723 162.272 272.718 162.265 272.715C162.154 272.63 162.076 272.49 162.076 272.336C162.076 272.181 162.148 272.041 162.265 271.957L162.311 271.929L179.535 261.227C179.796 261.065 179.959 260.764 179.959 260.441V254.174C179.959 253.823 179.607 253.606 179.326 253.781L162.076 264.497C161.815 264.658 161.489 264.658 161.228 264.497L156.2 261.374L156.2 261.374C156.187 261.36 156.174 261.346 156.161 261.346C156.043 261.262 155.972 261.122 155.972 260.967C155.972 260.813 156.043 260.672 156.161 260.588L156.2 260.56L173.43 249.858C173.691 249.697 173.854 249.395 173.854 249.072V242.806C173.854 242.455 173.502 242.237 173.222 242.413L155.972 253.129C155.711 253.29 155.385 253.29 155.124 253.129L150.076 249.992C149.796 249.816 149.443 250.034 149.443 250.385V256.658C149.443 256.981 149.607 257.283 149.867 257.444L155.098 260.694L155.17 260.743C155.398 260.911 155.548 261.192 155.548 261.508V268.034C155.548 268.357 155.711 268.658 155.972 268.82L161.202 272.069L161.274 272.118C161.502 272.287 161.652 272.567 161.652 272.883V279.409C161.652 279.732 161.815 280.034 162.076 280.195L167.333 283.458C167.593 283.62 167.92 283.62 168.18 283.458L185.646 272.609C185.907 272.448 186.07 272.146 186.07 271.823ZM152.783 303.479L157.517 316.897L162.252 303.479H167.026L159.833 322.357H155.202L148.009 303.479H152.783ZM145.309 300.651H134.567V306.658H145.446V311.269H134.567V317.648H145.446V322.364H129.761V295.936H145.309V300.651ZM211.42 306.504C211.713 306.904 211.98 307.332 212.222 307.788L212.228 307.795C212.998 309.269 213.389 310.974 213.389 312.897V312.932C213.389 314.869 212.998 316.581 212.228 318.069C211.459 319.557 210.389 320.722 209.02 321.564C207.65 322.406 206.078 322.827 204.298 322.827C202.517 322.827 200.933 322.406 199.543 321.564C198.154 320.722 197.065 319.557 196.283 318.069C196.126 317.781 195.989 317.479 195.865 317.171C195.357 315.901 195.102 314.49 195.102 312.932C195.102 311.655 195.272 310.476 195.604 309.402C195.774 308.841 195.989 308.308 196.257 307.795C197.026 306.308 198.102 305.143 199.485 304.301C200.861 303.458 202.42 303.037 204.22 303.037C206.02 303.037 207.611 303.458 208.993 304.301C209.946 304.876 210.754 305.613 211.42 306.504ZM207.65 316.455C207.82 316.209 207.97 315.95 208.1 315.662L208.087 315.669C208.452 314.876 208.635 313.964 208.635 312.932C208.635 311.901 208.446 310.988 208.074 310.195C207.865 309.767 207.624 309.381 207.324 309.051C207.083 308.778 206.815 308.532 206.509 308.329C205.843 307.872 205.054 307.648 204.213 307.648C203.372 307.648 202.615 307.872 201.95 308.329C201.285 308.778 200.763 309.402 200.391 310.195C200.124 310.757 199.954 311.381 199.876 312.062C199.843 312.343 199.83 312.63 199.83 312.932C199.83 313.964 200.013 314.876 200.391 315.669C200.763 316.462 201.291 317.087 201.97 317.536C202.648 317.992 203.417 318.216 204.285 318.216C204.487 318.216 204.683 318.209 204.872 318.181C205.498 318.097 206.065 317.887 206.567 317.536C206.991 317.248 207.35 316.883 207.65 316.455ZM175.83 303.03C177.611 303.03 179.091 303.395 180.272 304.125L180.265 304.111C181.452 304.848 182.326 305.872 182.9 307.192C183.467 308.511 183.748 310.083 183.722 311.894L183.617 322.357H179.3L179.222 320.146C179.13 320.329 179.039 320.497 178.935 320.658C178.035 322.097 176.496 322.813 174.389 322.813C172.283 322.813 170.652 322.315 169.491 321.304C168.337 320.301 167.757 318.876 167.757 317.037C167.757 315.023 168.383 313.508 169.635 312.49C170.887 311.472 172.648 310.96 174.917 310.96H179.046C178.993 310.581 178.922 310.223 178.83 309.901C178.609 309.101 178.257 308.476 177.78 308.034C177.298 307.592 176.652 307.374 175.83 307.374C175.08 307.374 174.402 307.55 173.796 307.901C173.183 308.251 172.674 308.792 172.25 309.522L168.18 308.013C168.513 307.213 168.989 306.42 169.622 305.655C170.254 304.89 171.076 304.258 172.093 303.767C173.111 303.276 174.357 303.03 175.83 303.03ZM177.22 318.076C177.82 317.69 178.289 317.185 178.641 316.567H178.635C178.987 315.95 179.163 315.311 179.163 314.658H176.528C175.009 314.658 173.959 314.848 173.372 315.241C172.791 315.634 172.498 316.181 172.498 316.883C172.498 317.437 172.733 317.872 173.202 318.188C173.665 318.504 174.324 318.658 175.165 318.658C175.941 318.658 176.626 318.469 177.22 318.076ZM187.7 298.294L191.411 295.992H191.404C191.691 295.816 192.043 296.034 192.043 296.385V322.357H187.413V298.827C187.413 298.609 187.524 298.406 187.7 298.294Z" fill="white"/>
</svg>
